<?xml version="1.0" encoding="utf-8"?>
<!-- Generator: Adobe Illustrator 18.0.0, SVG Export Plug-In . SVG Version: 6.00 Build 0)  -->
<!DOCTYPE svg PUBLIC "-//W3C//DTD SVG 1.1//EN" "http://www.w3.org/Graphics/SVG/1.1/DTD/svg11.dtd">
<svg version="1.1" id="Layer_1" xmlns="http://www.w3.org/2000/svg" xmlns:xlink="http://www.w3.org/1999/xlink" x="0px" y="0px"
	 viewBox="0 0 43 32" enable-background="new 0 0 43 32" xml:space="preserve">
<g>
	<g>
		<g>
			<path fill-rule="evenodd" clip-rule="evenodd" fill="#55A3DA" d="M10,0C4.5,0,0,4.5,0,10.1c0,5.6,4.5,10.1,10,10.1
				c2.3,0,4.4-0.8,6.1-2.1l-3.3,12.6c-0.1,0.5,0.2,1.1,0.7,1.2c0.5,0.1,1.1-0.2,1.2-0.7l4.6-17.2c0.5-1.2,0.8-2.6,0.8-4
				C20,4.5,15.5,0,10,0z M17.5,12.9c0,0.1-0.1,0.2-0.1,0.2l0,0.2c-1.2,2.8-4,4.8-7.3,4.8c-4.4,0-8-3.6-8-8.1C2,5.6,5.6,2,10,2
				s8,3.6,8,8.1C18,11.1,17.8,12,17.5,12.9z M33,0c-5.5,0-10,4.5-10,10.1c0,5.6,4.5,10.1,10,10.1c2.3,0,4.4-0.8,6.1-2.1l-3.3,12.6
				c-0.1,0.5,0.2,1.1,0.7,1.2c0.5,0.1,1.1-0.2,1.2-0.7l4.6-17.2c0.5-1.2,0.8-2.6,0.8-4C43,4.5,38.5,0,33,0z M40.5,12.9
				c0,0.1-0.1,0.2-0.1,0.2l0,0.2c-1.2,2.8-4,4.8-7.3,4.8c-4.4,0-8-3.6-8-8.1C25,5.6,28.6,2,33,2c4.4,0,8,3.6,8,8.1
				C41,11.1,40.8,12,40.5,12.9z"/>
		</g>
	</g>
</g>
</svg>
